<svg xmlns="http://www.w3.org/2000/svg" viewBox="0 0 126 38.025"><defs><style>.cls-1, .cls-2 {fill: #fff;} .cls-1 {fill-rule: evenodd;}</style></defs><g id="Enova_White_Logo" data-name="Enova White Logo" transform="translate(63 19.012)"><g id="Enova_White_Logo-2" data-name="Enova White Logo" transform="translate(-63 -19.012)"><path id="Path_5016" data-name="Path 5016" class="cls-1" d="M253.253,61.016V59.024a6.357,6.357,0,0,0,3.423-1.079V54.654a20.432,20.432,0,0,0-3.423-.268V52.393a21.373,21.373,0,0,1,3.423.26V51.336q0-2.163-3.423-2.267V47.077q5.882.12,5.882,4.46v9.5h-1.25l-.981-.986A8.557,8.557,0,0,1,253.253,61.016Zm0-13.939v1.993c-.108,0-.221,0-.341,0a15.633,15.633,0,0,0-4.416.664V47.735a15.762,15.762,0,0,1,4.416-.664c.117,0,.229.005.341.005Zm0,5.316v1.993h-.222q-3.2,0-3.2,2.258,0,2.4,2.791,2.4c.217,0,.426-.005.633-.017v1.992c-.21.012-.415.018-.633.018q-5.255,0-5.253-4.348,0-4.294,5.664-4.294ZM224.3,61.021V59.042h0q4.188,0,4.191-5.045,0-4.93-4.191-4.932h0V47.071h0q6.64,0,6.649,6.983,0,6.966-6.649,6.968Zm8.21-13.95h2.66l4,10.943,3.969-10.943h2.661l-5.679,13.963h-2.28Zm-37.711,0q6.409,0,5.171,7.685h-5.818V52.707h3.57q.185-3.67-3.323-3.671c-.082,0-.165,0-.247,0V47.088c.209-.011.426-.017.647-.017Zm-.648,11.822a10.337,10.337,0,0,0,1.819.148,17.65,17.65,0,0,0,3.7-.4v1.991a21.6,21.6,0,0,1-4.5.4c-.355,0-.7-.014-1.021-.039v-2.1ZM224.3,47.071v1.994q-4.188,0-4.187,4.932,0,5.039,4.187,5.045v1.979q-6.354,0-6.65-6.968,0-6.98,6.65-6.983ZM203.058,61.035V47.071h1.665l.435,1.779a8.874,8.874,0,0,1,5.107-1.779q4.833,0,4.831,5.2v8.767h-2.462v-8.8q0-3.111-3.1-3.115a5.874,5.874,0,0,0-4.019,1.77V61.035Zm-8.905-6.278h-3.585q0,3.49,3.585,4.137V61q-6.04-.5-6.04-7.1,0-6.485,6.04-6.806v1.952q-3.352.128-3.585,3.667h3.585Z" transform="translate(-139.283 -34.853)"/><g id="Group_1314" data-name="Group 1314"><path id="Path_5017" data-name="Path 5017" class="cls-2" d="M22.459,97.377c20.677,7.361,31.03-7.1,31.03-7.1l.939-7.3C45.186,102.338,22.459,97.377,22.459,97.377Z" transform="translate(-16.629 -61.441)"/><path id="Path_5018" data-name="Path 5018" class="cls-2" d="M70.591,12.735s2.741,7.242-17.184,15.559c-.087.037-5.7,2.124-5.784,2.161L51.705,35s5.6-2.082,5.755-2.142c1.58-.617,10.727-4.339,13.2-8.666A13.115,13.115,0,0,0,70.591,12.735Z" transform="translate(-35.261 -9.43)"/><path id="Path_5019" data-name="Path 5019" class="cls-2" d="M11.013,10.7C15.3,8.174,19.08,7.286,23.151,7.674c0,0,4.327-4.093-.363-7.055,0,0-7.144-2.954-16.207,4.083C-1.344,10.855-.219,18.8.517,20.817,1.777,24.285,3.7,26.762,9.1,28.836,9.1,28.836-2.538,18.666,11.013,10.7Z" transform="translate(0 -0.003)"/></g><path id="Path_5020" data-name="Path 5020" class="cls-2" d="M475.194,92.388a1.325,1.325,0,0,1,2.649,0q0,1.274-1.329,1.274A1.167,1.167,0,0,1,475.194,92.388Zm1.32,1.1a.978.978,0,0,0,1.105-1.108,1.1,1.1,0,1,0-2.2,0A.974.974,0,0,0,476.514,93.49Zm-.54-.282V91.562h.7q.47,0,.47.393,0,.322-.46.476l.565.777h-.279l-.525-.74v-.139q.473-.078.473-.365,0-.227-.264-.227h-.47v1.471Z" transform="translate(-351.843 -67.436)"/></g></g></svg>
